<svg xmlns="http://www.w3.org/2000/svg" xmlns:xlink="http://www.w3.org/1999/xlink" width="791.823303" height="588.473694" viewBox="0 0 791.823 588.474"><path d="M10.8369 17.3838L13.4297 17.3838L13.4297 15.4414L22.3594 15.4414L22.3594 17.3838L24.9873 17.3838L24.9873 15.4414L33.8027 15.4414L33.8027 13.209L24.9873 13.209L24.9873 10.9062L22.3594 10.9062L22.3594 13.209L13.4297 13.209L13.4297 10.9062L10.8369 10.9062L10.8369 13.209L2.19727 13.209L2.19727 15.4414L10.8369 15.4414L10.8369 17.3838ZM10.4414 34.9531C9.43066 37.0801 7.66406 39.5938 5.51074 41.1055L7.48828 42.5469C9.68555 40.7803 11.3379 38.1523 12.4893 35.9199L10.4414 34.9531ZM14.6514 41.1055C14.6514 41.4658 14.5459 41.5801 14.1152 41.6152C13.7549 41.6152 12.3838 41.6152 10.9072 41.5801C11.2324 42.2217 11.5928 43.0918 11.6982 43.7334C13.7549 43.7334 15.082 43.7334 15.9521 43.373C16.8486 42.9775 17.1035 42.4062 17.1035 41.1758L17.1035 32.5801L14.6514 32.5801L14.6514 41.1055ZM18.0703 36.21C19.1514 38.1172 20.2676 40.6396 20.5576 42.2217L22.6758 41.4658C22.3242 39.8838 21.1641 37.4316 20.0479 35.6035L18.0703 36.21ZM21.999 35.3838C24.1172 37.5459 26.5342 40.5693 27.5361 42.5469L29.6631 41.4307C28.582 39.4531 26.1035 36.5 23.9766 34.4082L21.999 35.3838ZM9.07031 23.501L26.9648 23.501L26.9648 25.7334L9.07031 25.7334L9.07031 23.501ZM9.07031 19.6162L26.9648 19.6162L26.9648 21.7783L9.07031 21.7783L9.07031 19.6162ZM33.9873 31.7451L33.9873 29.5918L14.5811 29.5918C15.0117 28.9062 15.4072 28.2559 15.7676 27.5352L29.5225 27.5352L29.5225 17.7793L6.5918 17.7793L6.5918 27.5352L12.8145 27.5352C12.4893 28.2207 12.0938 28.9062 11.5576 29.5918L2.04785 29.5918L2.04785 31.7451L9.61523 31.7451C7.62891 33.582 4.93066 35.2432 1.47656 36.4648C2.04785 36.8604 2.80371 37.7217 3.16406 38.3369C7.48828 36.6406 10.6963 34.3379 12.9639 31.7451L22.5 31.7451C25.0225 34.5928 29.0479 37.2207 32.7217 38.4775C33.082 37.8711 33.8379 37.001 34.3477 36.5C31.21 35.6035 27.8262 33.8018 25.4883 31.7451L33.9873 31.7451ZM41.6865 16.6279L66.208 16.6279L66.208 20.6973L68.9063 20.6973L68.9063 14.1758L56.1973 14.1758C55.7666 13.1035 55.0108 11.6973 54.3604 10.6162L51.627 11.2666C52.1279 12.1279 52.6641 13.2441 53.0684 14.1758L39.0938 14.1758L39.0938 20.6973L41.6865 20.6973L41.6865 16.6279ZM57.0938 19.8711C60.4072 21.9189 64.4414 24.9775 66.3838 27.0342L68.2559 25.2676C66.2783 23.2197 62.1387 20.3018 58.8604 18.3594L57.0938 19.8711ZM47.9883 18.3242C45.8965 20.9521 42.5127 23.4658 39.3135 25.0918C39.8848 25.5576 40.7901 26.6035 41.1856 27.1045C44.4639 25.2324 48.0938 22.2793 50.4756 19.1504L47.9883 18.3242ZM46.7666 31.7451C49.5 29.873 52.0225 27.6758 54.0703 25.3027C56.4522 27.8955 59.001 29.9873 61.8135 31.7451L46.7666 31.7451ZM46.582 40.1738L46.582 34.1621L61.3477 34.1621L61.3477 40.1738L46.582 40.1738ZM53.8242 21.4531C50.3965 26.7441 44.0684 31.209 37.4766 33.6523C38.0918 34.2676 38.7686 35.1641 39.1641 35.8145C40.8252 35.1641 42.4424 34.373 43.9893 33.4766L43.9893 43.8037L46.582 43.8037L46.582 42.582L61.3477 42.582L61.3477 43.6631L64.0459 43.6631L64.0459 33.0811C65.5225 33.9072 67.0694 34.6982 68.6514 35.3838C69.0469 34.6279 69.7676 33.6963 70.3828 33.1162C64.6172 30.8486 59.5459 28.0361 55.4766 23.4307C55.7315 23.1055 55.9424 22.7803 56.1621 22.499L53.8242 21.4531ZM79.1631 16.373L106.128 16.373L106.128 14.0352L92.918 14.0352C92.5928 13.0684 92.127 11.7676 91.6963 10.7568L89.0244 11.3369C89.3496 12.1631 89.71 13.1387 90 14.0352L76.5703 14.0352L76.5703 24.5117C76.5703 29.6621 76.3242 36.8252 73.4766 41.8965C74.0479 42.1514 75.1641 42.8721 75.6387 43.3379C78.6621 37.9766 79.1631 30.0225 79.1631 24.5117L79.1631 16.373ZM84.419 29.7324L84.419 26.5244L90.6504 26.5244C90.5362 27.6406 90.3955 28.7217 90.2198 29.7324L84.419 29.7324ZM84.419 21.3477L90.9756 21.3477C90.9317 22.4639 90.8965 23.501 90.8262 24.5469L84.419 24.5469L84.419 21.3477ZM100.617 24.5469L93.3838 24.5469C93.4541 23.501 93.5244 22.4639 93.5596 21.3477L100.617 21.3477L100.617 24.5469ZM100.617 29.7324L92.8037 29.7324C92.9883 28.7217 93.1289 27.6406 93.2432 26.5244L100.617 26.5244L100.617 29.7324ZM103.175 31.8242L103.175 19.291L91.8369 19.291C92.2325 18.5703 92.6631 17.7793 93.0938 16.9531L90.1407 16.4521C89.9649 17.208 89.5342 18.3594 89.1035 19.291L81.9756 19.291L81.9756 31.8242L89.71 31.8242C88.3037 36.5 85.21 39.7432 78.1172 41.6504C78.6621 42.1865 79.3828 43.1621 79.6289 43.8477C87.5479 41.501 90.8614 37.5107 92.3379 31.8242L103.175 31.8242ZM100.582 34.6631C100.942 35.3135 101.338 36.0342 101.698 36.79L98.1387 37.2559C98.9297 35.999 99.6856 34.4521 100.222 32.8965L98.3145 32.1758C97.8838 34.1621 96.7676 36.1045 96.4424 36.6406C96.1524 37.1855 95.8711 37.4756 95.4756 37.5459C95.7217 38.1172 96.0469 39.1631 96.1524 39.6289C96.5918 39.3477 97.4883 39.1631 102.454 38.3721C102.674 38.8027 102.885 39.2686 103.034 39.6289L104.186 39.1279C104.08 40.8945 103.755 41.1406 102.674 41.1406L96.9082 41.1406C95.291 41.1406 94.9659 40.9648 94.9659 40.1035L94.9659 33.0811L92.5225 33.0811L92.5225 40.1035C92.5225 42.6172 93.3487 43.2676 96.6973 43.2676L102.92 43.2676C105.372 43.2676 106.128 42.4766 106.418 39.418C105.803 39.3037 105.047 39.0225 104.476 38.6973C103.966 37.4756 102.999 35.5684 102.129 34.1621L100.582 34.6631Z" fill="#19191A" fill-opacity="1.000000" transform="matrix(1 0 0 1 136.637 6.73686)"/><path d="M30.8496 13.2793C30.3838 15.8369 29.4521 19.6865 28.6523 21.9189L30.709 22.5342C31.5352 20.3369 32.5107 16.8477 33.3369 13.9297L30.8496 13.2793ZM22.4648 21.8135C22.0342 19.6162 21.0234 16.2324 20.127 13.5693L18.0352 14.2197C18.8965 16.8477 19.8721 20.3018 20.2324 22.5342L22.4648 21.8135ZM13.3594 19.1504L5.51074 19.1504L5.51074 16.4082L13.3594 16.4082L13.3594 19.1504ZM13.3594 23.791L5.51074 23.791L5.51074 21.0576L13.3594 21.0576L13.3594 23.791ZM15.7676 14.3955L9.86133 14.3955C10.2568 13.4639 10.6963 12.3037 11.0918 11.1963L8.34961 10.9062C8.17383 11.8379 7.74316 13.2793 7.41797 14.3955L3.16406 14.3955L3.16406 25.8477L15.7676 25.8477L15.7676 14.3955ZM16.9893 37.9414L10.5469 38.7676L10.5469 35.5684L16.0576 35.5684L16.0576 33.3359L10.5469 33.3359L10.5469 30.3037L16.5938 30.3037L16.5938 28.0801L2.26758 28.0801L2.26758 30.3037L8.10352 30.3037L8.10352 33.3359L2.84766 33.3359L2.84766 35.5684L8.10352 35.5684L8.10352 39.0928C5.61621 39.4531 3.31348 39.7432 1.51172 39.9189L1.83691 42.3359C5.87109 41.791 11.5576 40.9297 17.0244 40.1035L16.9893 37.9414ZM29.7334 40.6748C29.127 40.6748 29.0127 40.5342 29.0127 39.6289L29.0127 26.7793L34.1279 26.7793L34.1279 24.3359L26.7803 24.3359L26.7803 11.3721L24.3721 11.3721L24.3721 24.3359L17.5342 24.3359L17.5342 26.7793L21.3486 26.7793C21.1289 33.8721 20.4521 39.1982 15.9873 42.1162C16.5234 42.5117 17.2441 43.4082 17.5693 44.0234C22.6055 40.6045 23.5811 34.6982 23.8359 26.7793L26.6045 26.7793L26.6045 39.6289C26.6045 42.3711 27.1406 43.1621 29.4082 43.1621L31.9307 43.1621C33.9521 43.1621 34.5938 41.8613 34.7783 36.8252C34.0928 36.6406 33.0469 36.21 32.5459 35.7441C32.4756 40.0244 32.3613 40.6748 31.6758 40.6748L29.7334 40.6748Z" fill="#19191A" fill-opacity="1.000000" transform="matrix(1 0 0 1 172.637 142.237)"/><path d="M5.29102 27.0342L12.709 27.0342L12.709 29.8027L5.29102 29.8027L5.29102 27.0342ZM5.29102 22.2441L12.709 22.2441L12.709 24.9775L5.29102 24.9775L5.29102 22.2441ZM24.873 10.7217C22.7197 14.3955 18.9316 17.7441 15.1172 19.792C15.627 20.3369 16.4531 21.5234 16.7432 22.0684L16.9893 21.9189L16.9893 23.8965L22.1396 23.8965L22.1396 32.7207C20.0479 34.0127 18.0352 35.3135 16.3828 36.2451L16.3828 34.9531L10.3711 34.9531L10.3711 31.9648L15.1523 31.9648L15.1523 20.1172L10.3711 20.1172L10.3711 17.0938L16.0576 17.0938L16.0576 14.6855L10.3711 14.6855L10.3711 10.8711L7.77832 10.8711L7.77832 14.6855L1.94238 14.6855L1.94238 17.0938L7.77832 17.0938L7.77832 20.1172L2.91797 20.1172L2.91797 31.9648L7.77832 31.9648L7.77832 34.9531L1.58203 34.9531L1.58203 37.3965L7.77832 37.3965L7.77832 43.7686L10.3711 43.7686L10.3711 37.3965L15.4424 37.3965L16.418 39.1279C18.1406 37.9766 20.1621 36.5703 22.1396 35.1289L22.1396 40.7803C22.1396 41.1758 22.0342 41.29 21.6387 41.29C21.2783 41.3252 20.0918 41.3252 18.7559 41.29C19.0811 41.9316 19.3711 42.9775 19.4766 43.6279C21.3486 43.6279 22.6055 43.5928 23.3965 43.1621C24.2314 42.7666 24.4424 42.0811 24.4424 40.8242L24.4424 21.6289L17.4199 21.6289C20.1973 19.8359 23.001 17.3838 25.1982 14.5801C27.2197 17.2432 30.0938 19.8711 32.9414 21.6289L25.4883 21.6289L25.4883 23.8965L30.709 23.8965L30.709 32.3955C28.4766 33.9775 26.209 35.5244 24.6621 36.4648L25.8838 38.5918C27.3955 37.5107 29.0479 36.21 30.709 34.918L30.709 40.7451C30.709 41.1406 30.6035 41.2549 30.208 41.2549C29.8037 41.2549 28.582 41.2549 27.2549 41.2197C27.5801 41.8965 27.8613 42.9775 27.9316 43.6279C29.8828 43.6279 31.21 43.5928 32.0361 43.1621C32.8711 42.7666 33.082 42.0459 33.082 40.7451L33.082 21.708L33.4775 21.9541C33.7324 21.2334 34.2334 20.1172 34.708 19.4756C31.7549 18.0342 28.5117 15.3359 26.6396 12.6289C26.8594 12.2686 27.1055 11.9082 27.3252 11.5479L24.873 10.7217ZM25.4531 26.9199C26.4639 28.291 27.5801 30.1631 28.1162 31.3848L29.9531 30.418C29.4521 29.1523 28.2568 27.3945 27.1758 26.0234L25.4531 26.9199ZM16.8486 26.999C17.9648 28.3262 19.2217 30.2334 19.8018 31.4639L21.6035 30.4531C21.0234 29.2666 19.7666 27.4648 18.5361 26.0586L16.8486 26.999Z" fill="#19191A" fill-opacity="1.000000" transform="matrix(1 0 0 1 6.73686 144.237)"/><path d="M0 0L36 0L36 54L0 54L0 0Z" stroke-opacity="0" fill-opacity="1.000000" fill="#FFF0B5" transform="matrix(1 0 0 1 164.637 276.737)"/><path d="M8.92969 11.082C7.19824 16.6279 4.32422 22.1035 1.22168 25.6982C1.65234 26.3486 2.37305 27.79 2.62793 28.3965C3.81445 26.999 4.96582 25.3379 6.04688 23.5361L6.04688 43.7686L8.60449 43.7686L8.60449 18.79C9.65039 16.5225 10.582 14.1758 11.373 11.8027L8.92969 11.082ZM22.2803 19.291L15.6973 19.291L15.6973 17.208L22.2803 17.208L22.2803 19.291ZM22.2803 23.29L15.6973 23.29L15.6973 21.0576L22.2803 21.0576L22.2803 23.29ZM22.2803 27.3242L15.6973 27.3242L15.6973 25.0479L22.2803 25.0479L22.2803 27.3242ZM13.4648 30.3828L15.6973 30.3828L15.6973 29.1963L33.7676 29.1963L33.7676 27.3242L24.7324 27.3242L24.7324 25.0479L32.0801 25.0479L32.0801 23.29L24.7324 23.29L24.7324 21.0576L32.1152 21.0576L32.1152 19.291L24.7324 19.291L24.7324 17.208L33.4424 17.208L33.4424 15.2217L25.3477 15.2217C24.9521 14.1406 24.1172 12.5586 23.3965 11.3721L21.3838 12.0928C21.9199 13.0244 22.5 14.2197 22.9307 15.2217L16.2334 15.2217C16.9189 14.0703 17.6045 12.8486 18.1406 11.627L15.7324 10.9414C14.3262 14.2549 11.9531 17.4189 9.39551 19.5459C9.97559 19.9414 10.9072 20.7676 11.3027 21.2334C12.0234 20.5479 12.7441 19.8359 13.4648 19.001L13.4648 30.3828ZM33.873 31.4639L25.0225 31.4639L25.0225 36.79L21.0234 36.79L21.0234 31.4639L12.3486 31.4639L12.3486 43.6631L14.8359 43.6631L14.8359 33.582L18.8262 33.582L18.8262 38.8379L27.29 38.8379L27.29 33.582L31.3945 33.582L31.3945 40.8945C31.3945 41.3252 31.2451 41.501 30.709 41.501C30.0938 41.5361 28.2217 41.5361 25.9893 41.4658C26.3145 42.1514 26.6748 43.0127 26.7803 43.6631C29.5576 43.6631 31.3945 43.6982 32.5107 43.3027C33.5479 42.9072 33.873 42.292 33.873 40.8945L33.873 31.4639Z" fill="#19191A" fill-opacity="1.000000" transform="matrix(1 0 0 1 164.637 276.737)"/><path d="M0 0L36 0L36 54L0 54L0 0Z" stroke-opacity="0" fill-opacity="1.000000" fill="#FFF0B5" transform="matrix(1 0 0 1 92.5502 426.237)"/><path d="M9.89648 15.7666L9.89648 23.7207L5.29102 23.7207L5.29102 15.7666L9.89648 15.7666ZM5.29102 33.9775L5.29102 26.0938L9.89648 26.0938L9.89648 33.9775L5.29102 33.9775ZM12.208 13.3848L2.84766 13.3848L2.84766 39.5938L5.29102 39.5938L5.29102 36.3594L12.208 36.3594L12.208 13.3848ZM17.5342 24.7666L29.1621 24.7666L29.1621 27.9658L17.5342 27.9658L17.5342 24.7666ZM25.418 34.2676L32.9414 34.2676L32.9414 32.2197L25.418 32.2197L25.418 29.9873L31.6406 29.9873L31.6406 22.7803L15.1172 22.7803L15.1172 29.9873L22.8955 29.9873L22.8955 32.2197L13.7197 32.2197L13.7197 34.2676L22.8955 34.2676L22.8955 37.3965L16.9541 37.3965C17.1387 36.5703 17.3145 35.6387 17.4639 34.8037L15.1172 34.5928C14.8711 36.21 14.4316 38.1523 14.0361 39.5234L22.8955 39.5234L22.8955 43.7334L25.418 43.7334L25.418 39.5234L34.1279 39.5234L34.1279 37.3965L25.418 37.3965L25.418 34.2676ZM28.582 15.8369L28.582 18.8252L21.0586 18.8252C21.3486 17.9199 21.6035 16.8828 21.8848 15.8369L28.582 15.8369ZM31.0342 18.8252L31.0342 13.7451L22.3594 13.7451C22.5703 12.8486 22.79 11.9082 22.9658 11.082L20.5225 10.8359C20.3379 11.7324 20.127 12.7432 19.9072 13.7451L14.8359 13.7451L14.8359 15.8369L19.3711 15.8369C19.1162 16.8828 18.8262 17.9199 18.5361 18.8252L13.1748 18.8252L13.1748 20.9521L34.2334 20.9521L34.2334 18.8252L31.0342 18.8252Z" fill="#19191A" fill-opacity="1.000000" transform="matrix(1 0 0 1 92.5502 426.237)"/><path d="M0 0L36 0L36 54L0 54L0 0Z" stroke-opacity="0" fill-opacity="1.000000" fill="#FFD635" transform="matrix(1 0 0 1 386.737 279.737)"/><path d="M25.2686 33.5469L19.4414 33.5469L19.4414 28.6514L25.2686 28.6514L25.2686 33.5469ZM10.8721 33.5469L10.8721 28.6514L16.708 28.6514L16.708 33.5469L10.8721 33.5469ZM10.8721 21.5586L16.708 21.5586L16.708 26.0938L10.8721 26.0938L10.8721 21.5586ZM25.2686 21.5586L25.2686 26.0938L19.4414 26.0938L19.4414 21.5586L25.2686 21.5586ZM33.9873 28.6514L33.9873 26.0938L28.0459 26.0938L28.0459 21.5586L32.2207 21.5586L32.2207 19.0361L19.4414 19.0361L19.4414 15.1162C23.7217 14.7207 27.6855 14.2549 30.7793 13.6045L29.4521 11.2666C23.6162 12.5234 13.2451 13.2441 4.8252 13.5342C5.08008 14.1406 5.39648 15.1514 5.47559 15.8721C8.96484 15.7666 12.8848 15.582 16.708 15.3359L16.708 19.0361L3.84961 19.0361L3.84961 21.5586L8.20898 21.5586L8.20898 26.0938L2.0127 26.0938L2.0127 28.6514L8.20898 28.6514L8.20898 33.5469L3.63867 33.5469L3.63867 36.0693L16.708 36.0693L16.708 40.2793L5.36133 40.2793L5.36133 42.8369L30.6035 42.8369L30.6035 40.2793L19.4414 40.2793L19.4414 36.0693L32.4756 36.0693L32.4756 33.5469L28.0459 33.5469L28.0459 28.6514L33.9873 28.6514Z" fill="#000000" fill-opacity="1.000000" transform="matrix(1 0 0 1 386.737 279.737)"/><path d="M0 0L36 0L36 54L0 54L0 0Z" stroke-opacity="0" fill-opacity="1.000000" fill="#19DEA6" transform="matrix(1 0 0 1 171.637 426.922)"/><path d="M10.6963 14.5361C9.36035 13.6045 6.80273 12.1982 4.86035 11.3721L3.38379 13.3145C5.32617 14.2549 7.88379 15.7314 9.10547 16.7334L10.6963 14.5361ZM8.6748 24.0107C7.34766 23.0703 4.8252 21.7783 2.88281 21.0225L1.47656 23C3.4541 23.8613 5.94141 25.2676 7.19824 26.2432L8.6748 24.0107ZM4.89551 42.8018C6.47754 39.5234 8.38477 35.1641 9.75586 31.4199L7.55859 29.8379C6.04688 33.8721 3.91992 38.5127 2.45215 41.2549L4.89551 42.8018ZM13.2451 28.6162C13.4648 26.8848 13.6758 24.9072 13.8604 23L20.1973 23L20.1973 12.6289L11.1621 12.6289L11.1621 14.8613L17.71 14.8613L17.71 20.7676L11.7334 20.7676C11.5225 23.9756 11.0127 28.2207 10.582 30.8838L17.209 30.8838C16.6641 37.3262 16.0576 40.0244 15.2666 40.7803C14.9414 41.1406 14.6162 41.1758 14.001 41.1758C13.3594 41.1758 11.8828 41.1758 10.2568 41C10.6523 41.6855 10.9072 42.6172 10.9775 43.3027C12.6035 43.4082 14.1504 43.4082 15.0117 43.3379C16.0225 43.2676 16.7432 43.0479 17.3848 42.292C18.501 41.1758 19.1865 38.0117 19.8369 29.7676C19.8721 29.4072 19.9072 28.6162 19.9072 28.6162L13.2451 28.6162ZM34.5586 42.1865C33.9082 38.4424 32.1152 31.8945 30.4189 26.9199L28.0811 27.5703C29.0479 30.6641 30.1289 34.4082 30.8848 37.6865L23.3613 38.6973C25.4531 31.0684 27.1406 20.9521 27.8262 12.1631L25.2686 11.8027C24.6973 20.873 22.6055 31.4639 21.9199 34.1973C21.208 37.1855 20.5928 39.3037 19.8369 39.5938C20.0918 40.2793 20.4873 41.501 20.5576 42.0107C21.3486 41.6152 22.5703 41.3252 31.4297 39.9893C31.6758 41.1055 31.8955 42.1865 32.0361 43.0479L34.5586 42.1865Z" fill="#19191A" fill-opacity="1.000000" transform="matrix(1 0 0 1 171.637 426.922)"/><path d="M-81.1866 95.5L-69.8843 91.4686L-79.027 83.6962L-81.1866 95.5Z" transform="matrix(1 0 0 1 174.637 330.737)" fill="#000000" fill-opacity="1.000000" stroke="none"/><path d="M0 0L-77.3004 90.9286" fill="none" stroke="#000000" stroke-opacity="1.000000" stroke-width="2" stroke-linejoin="round" stroke-dasharray="0 0" transform="matrix(1 0 0 1 174.637 330.737)"/><path d="M14.0999 96.1855L18.5292 85.0332L6.65604 86.7737L14.0999 96.1855Z" transform="matrix(1 0 0 1 183.537 330.737)" fill="#000000" fill-opacity="1.000000" stroke="none"/><path d="M0 0L13.2296 90.249" fill="none" stroke="#000000" stroke-opacity="1.000000" stroke-width="2" stroke-linejoin="round" stroke-dasharray="0 0" transform="matrix(1 0 0 1 183.537 330.737)"/><path d="M-13.8999 66L-5.8871 57.0676L-17.6295 54.5946L-13.8999 66Z" transform="matrix(1 0 0 1 191.537 196.237)" fill="#000000" fill-opacity="1.000000" stroke="none"/><path d="M0 0L-12.6634 60.1288" fill="none" stroke="#000000" stroke-opacity="1.000000" stroke-width="2" stroke-linejoin="round" stroke-dasharray="0 0" transform="matrix(1 0 0 1 191.537 196.237)"/><path d="M195.2 83.5L188.005 73.8964L183.286 84.9294L195.2 83.5Z" transform="matrix(1 0 0 1 210.437 196.237)" fill="#000000" fill-opacity="1.000000" stroke="none"/><path d="M0 0L189.684 81.1402" fill="none" stroke="#000000" stroke-opacity="1.000000" stroke-width="2" stroke-linejoin="round" stroke-dasharray="0 0" transform="matrix(1 0 0 1 210.437 196.237)"/><path d="M0 0L36 0L36 54L0 54L0 0Z" stroke-opacity="0" fill-opacity="1.000000" fill="#83C6FF" transform="matrix(1 0 0 1 632.737 280.656)"/><path d="M34.4883 29.873L11.4873 29.873L11.4873 32.0703L34.4883 32.0703L34.4883 29.873ZM25.1279 36.7197C24.5479 35.6035 23.3965 33.6963 22.4648 32.29L20.4873 33.0107C21.3838 34.4521 22.5352 36.4297 23.0361 37.6162L25.1279 36.7197ZM24.873 25.5225L21.1289 25.5225L21.1289 20.6621L24.873 20.6621L24.873 25.5225ZM26.8594 20.6621L30.709 20.6621L30.709 25.5225L26.8594 25.5225L26.8594 20.6621ZM19.1514 25.5225L15.5918 25.5225L15.5918 20.6621L19.1514 20.6621L19.1514 25.5225ZM13.3945 18.6406L13.3945 27.5352L32.9766 27.5352L32.9766 18.6406L23.2559 18.6406C23.3965 17.8848 23.5811 16.9883 23.7568 16.0479L34.2686 16.0479L34.2686 13.8594L24.082 13.8594C24.2666 12.8838 24.4072 11.873 24.5479 10.9414L21.7793 10.792C21.709 11.6973 21.6035 12.7783 21.4541 13.8594L11.8477 13.8594L11.8477 16.0479L21.1641 16.0479C21.0586 16.9883 20.918 17.8848 20.7686 18.6406L13.3945 18.6406ZM8.82422 10.9414C7.16309 13.4639 3.91992 16.6982 1.37109 18.79C1.80176 19.3262 2.4082 20.3369 2.69824 20.9082C5.58105 18.5352 9 14.9756 11.2676 11.9082L8.82422 10.9414ZM9.50098 18.6758C7.41797 22.7451 4.1748 26.9199 1.15137 29.6973C1.65234 30.2686 2.45215 31.5693 2.7334 32.0703C3.91992 30.8838 5.18555 29.4775 6.40723 27.9307L6.40723 43.7686L8.92969 43.7686L8.92969 24.5117C10.0107 22.8594 11.0479 21.1982 11.8828 19.5459L9.50098 18.6758ZM12.1289 42.4414C13.6055 40.5693 14.6162 37.6865 15.3721 35.4189L13.2803 34.6279C12.6387 36.79 11.4873 39.5938 10.0459 41.29L12.1289 42.4414ZM20.8037 41.1758C19.4062 41.1758 19.1865 41 19.1865 40.2441L19.1865 34.8477L16.7783 34.8477L16.7783 40.2441C16.7783 42.6172 17.5693 43.2676 20.5576 43.2676L25.8135 43.2676C28.2217 43.2676 28.9424 42.3711 29.1973 38.627C28.5469 38.4775 27.6152 38.1523 27.0703 37.7568C26.9297 40.7803 26.7451 41.1758 25.5938 41.1758L20.8037 41.1758ZM28.8369 35.0938C30.2432 37.2559 31.79 40.2441 32.3613 42.0811L34.5234 41.1055C33.8379 39.2686 32.291 36.3945 30.8496 34.2324L28.8369 35.0938Z" fill="#000000" fill-opacity="1.000000" transform="matrix(1 0 0 1 632.737 280.656)"/><path d="M441 91.4194L432.042 83.4349L429.606 95.1851L441 91.4194Z" transform="matrix(1 0 0 1 220.637 189.237)" fill="#000000" fill-opacity="1.000000" stroke="none"/><path d="M0 0L435.125 90.2015" fill="none" stroke="#000000" stroke-opacity="1.000000" stroke-width="2" stroke-linejoin="round" stroke-dasharray="0 0" transform="matrix(1 0 0 1 220.637 189.237)"/><path d="M3.34863 27.7197C4.28027 25.127 4.93066 21.0225 5.15039 18.0693L3.02344 17.7793C2.76855 20.6973 2.12695 24.6172 1.18652 26.9639L3.34863 27.7197ZM6.40723 43.7334L9 43.7334L9 10.8711L6.40723 10.8711L6.40723 43.7334ZM13.7549 23.3252C13.3242 21.6641 12.208 18.8955 11.1621 16.7334L9.29004 17.5244C10.292 19.6514 11.373 22.5342 11.7334 24.2568L13.7549 23.3252ZM28.7666 32.9756L28.7666 39.4531L18.1758 39.4531L18.1758 32.9756L28.7666 32.9756ZM15.627 43.6982L18.1758 43.6982L18.1758 41.8613L28.7666 41.8613L28.7666 43.6279L31.3945 43.6279L31.3945 30.5938L15.627 30.5938L15.627 43.6982ZM19.3359 16.918L28.8721 16.918C27.5801 19.1504 25.7783 21.0928 23.6865 22.7451C21.7793 21.1631 20.2324 19.3262 19.1162 17.2783L19.3359 16.918ZM30.8496 14.3955L30.3838 14.501L20.6279 14.501C21.0938 13.499 21.5596 12.4531 21.9639 11.4072L19.582 10.7568C18.1758 14.6504 15.873 18.3945 13.21 20.873C13.7197 21.3477 14.5811 22.4199 14.8711 22.8945C15.873 21.9189 16.8838 20.7324 17.7803 19.4404C18.8613 21.1631 20.1973 22.71 21.7441 24.1162C18.6855 26.1641 15.0469 27.6758 11.4082 28.6514C11.8828 29.1523 12.6035 30.3037 12.8496 30.9893C16.708 29.8027 20.4873 28.0801 23.792 25.7686C26.6396 27.8604 30.0234 29.5127 33.6973 30.5938C33.873 29.873 34.3037 28.792 34.708 28.1504C31.3945 27.3242 28.3359 26.0234 25.7432 24.2568C28.582 21.8838 30.9639 18.9658 32.5107 15.4766L30.8496 14.3955Z" fill="#000000" fill-opacity="1.000000" transform="matrix(1 0 0 1 507.637 281.635)"/><path d="M293 83.3986L284.648 74.7829L281.362 86.3244L293 83.3986Z" transform="matrix(1 0 0 1 222.637 198.237)" fill="#000000" fill-opacity="1.000000" stroke="none"/><path d="M0 0L287.229 81.756" fill="none" stroke="#000000" stroke-opacity="1.000000" stroke-width="2" stroke-linejoin="round" stroke-dasharray="0 0" transform="matrix(1 0 0 1 222.637 198.237)"/><path d="M1.52588e-05 81.5L6.00002 71.108L-5.99998 71.108L1.52588e-05 81.5Z" transform="matrix(1 0 0 1 191.537 60.7369)" fill="#000000" fill-opacity="1.000000" stroke="none"/><path d="M0 0L1.52588e-05 75.5" fill="none" stroke="#000000" stroke-opacity="1.000000" stroke-width="2" stroke-linejoin="round" stroke-dasharray="0 0" transform="matrix(1 0 0 1 191.537 60.7369)"/><path d="M0 0L36 0L36 54L0 54L0 0Z" stroke-opacity="0" fill-opacity="1.000000" fill="#19DEA6" transform="matrix(1 0 0 1 272.937 426.237)"/><path d="M10.1514 19.2207C9 17.2783 6.44238 14.3252 4.35938 12.2334L2.33789 13.6045C4.42969 15.7666 6.9082 18.8604 7.98926 20.8379L10.1514 19.2207ZM4.20996 42.1865C6.2666 38.8027 8.63965 34.2324 10.4414 30.3828L8.49902 28.6865C6.47754 32.8613 3.81445 37.6162 1.97754 40.4639L4.20996 42.1865ZM23.9062 29.6973L23.9062 20.6973L30.9639 20.6973L30.9639 29.6973L23.9062 29.6973ZM14.4316 29.6973L14.4316 20.6973L21.2783 20.6973L21.2783 29.6973L14.4316 29.6973ZM23.9062 18.1748L23.9062 11.2666L21.2783 11.2666L21.2783 18.1748L11.918 18.1748L11.918 34.4082L14.4316 34.4082L14.4316 32.1758L21.2783 32.1758L21.2783 43.6982L23.9062 43.6982L23.9062 32.1758L30.9639 32.1758L30.9639 34.1621L33.5918 34.1621L33.5918 18.1748L23.9062 18.1748Z" fill="#19191A" fill-opacity="1.000000" transform="matrix(1 0 0 1 272.937 426.237)"/><path d="M123 81L117.621 70.2735L111.021 80.2955L123 81Z" transform="matrix(1 0 0 1 184.637 340.737)" fill="#000000" fill-opacity="1.000000" stroke="none"/><path d="M0 0L117.989 77.7001" fill="none" stroke="#000000" stroke-opacity="1.000000" stroke-width="2" stroke-linejoin="round" stroke-dasharray="0 0" transform="matrix(1 0 0 1 184.637 340.737)"/><path d="M63.5001 -0.685547L53.0439 -6.57301L53.1735 5.42629L63.5001 -0.685547Z" transform="matrix(1 0 0 1 209.437 453.922)" fill="#FFD635" fill-opacity="1.000000" stroke="none"/><path d="M0 0L57.5004 -0.620775" fill="none" stroke="#FFD635" stroke-opacity="1.000000" stroke-width="2" stroke-linejoin="round" stroke-dasharray="0 0" transform="matrix(1 0 0 1 209.437 453.922)"/><path d="M0 0L36 0L36 54L0 54L0 0Z" stroke-opacity="0" fill-opacity="1.000000" fill="#19DEA6" transform="matrix(1 0 0 1 308.187 276.089)"/><path d="M24.627 15.582C21.6035 13.9297 15.7676 11.9873 11.373 10.9414L10.0811 13.1387C14.5459 14.2549 20.3379 16.4082 23.2559 18.0693L24.627 15.582ZM12.3135 25.0918L11.8477 25.1973L2.12695 25.1973L2.12695 27.7549L10.6963 27.7549C8.89453 33.0107 5.36133 37.1504 1.40625 39.4883C2.0127 39.9189 3.09375 40.9297 3.48926 41.501C8.10352 38.5479 12.2432 33.2217 14.0801 25.8828L12.3135 25.0918ZM30.9199 20.8379C28.8369 23.1758 25.4531 26.2432 22.6055 28.3965C21.3135 26.0938 20.3027 23.5801 19.5117 20.9082L19.5117 18.2451L6.80273 18.2451L6.80273 20.8379L16.708 20.8379L16.708 40.2793C16.708 40.8594 16.4883 41.0352 15.8379 41.0703C15.2666 41.1055 13.1396 41.1055 10.9424 41C11.373 41.7559 11.8037 42.9424 11.918 43.6631C14.9062 43.6631 16.8135 43.6279 17.9648 43.1973C19.1162 42.7666 19.5117 41.9316 19.5117 40.3145L19.5117 27.5703C22.3594 33.9424 26.6748 38.8027 32.7217 41.4307C33.1172 40.6748 33.9873 39.6289 34.5586 39.0928C30.0938 37.3965 26.5342 34.3379 23.8711 30.3828C26.8594 28.291 30.5244 25.1973 33.3369 22.5693L30.9199 20.8379Z" fill="#19191A" fill-opacity="1.000000" transform="matrix(1 0 0 1 308.187 276.089)"/><path d="M-2.54999 -150.148L-8.37266 -139.655L3.62561 -139.859L-2.54999 -150.148Z" transform="matrix(1 0 0 1 310.737 453.237)" fill="#FFD635" fill-opacity="1.000000" stroke="none"/><path d="M0 0L-2.4481 -144.149" fill="none" stroke="#FFD635" stroke-opacity="1.000000" stroke-width="2" stroke-linejoin="round" stroke-dasharray="4 4" transform="matrix(1 0 0 1 310.737 453.237)"/><path d="M0 0.496597L41.9998 0.496597L41.9998 32L0 32L0 0.496597Z" stroke-opacity="0" fill-opacity="1.000000" fill="#FFF0B5" transform="matrix(1 0 0 1 118.676 274.737)"/><path d="M3.9892 19.7596L3.9892 17.6573L8.62959 17.6573L8.62959 19.7596L3.9892 19.7596ZM8.62959 14.3808L8.62959 16.4369L3.9892 16.4369L3.9892 14.3808L8.62959 14.3808ZM10.1422 13.0374L2.4971 13.0374L2.4971 25.5126L3.9892 25.5126L3.9892 20.9953L8.62959 20.9953L8.62959 23.7898C8.62959 24.0615 8.54755 24.1487 8.23478 24.1692C7.95789 24.1897 7.01443 24.1897 5.96329 24.1487C6.17352 24.5435 6.38375 25.1127 6.47091 25.5126C7.89636 25.5126 8.7988 25.5126 9.38846 25.2614C9.95762 25.0101 10.1422 24.6102 10.1422 23.8103L10.1422 13.0374ZM16.9054 23.6411C16.9054 23.959 16.8028 24.041 16.4439 24.0615C16.1311 24.082 14.998 24.082 13.7161 24.041C13.9468 24.4615 14.1981 25.1127 14.2801 25.5331C15.8799 25.5536 16.9259 25.5126 17.5976 25.2614C18.2283 25.0101 18.4385 24.5897 18.4385 23.6411L18.4385 12.6169L16.9054 12.6169L16.9054 23.6411ZM14.1365 13.2476L12.6855 13.2476L12.6855 21.7747L14.1365 21.7747L14.1365 13.2476ZM14.9313 9.7404C15.5415 8.87898 16.2337 7.84835 16.8028 6.88438L15.162 6.33574C14.7006 7.34586 13.9058 8.73028 13.1879 9.7404L6.93239 9.7404L7.95789 9.34046C7.56307 8.52006 6.68114 7.28433 5.86074 6.4024L4.43017 6.94591C5.14802 7.78682 5.96329 8.92 6.34273 9.7404L1.19471 9.7404L1.19471 11.1659L19.8486 11.1659L19.8486 9.7404L14.9313 9.7404ZM23.3329 25.5741C24.4866 24.5435 25.4506 22.8668 25.9992 21.2722L24.5071 20.8927C23.9841 22.4259 22.9945 24.041 21.9229 24.923L23.3329 25.5741ZM25.7275 13.6681L22.5535 13.6681L22.5535 15.032L25.7275 15.032L25.7275 17.4676C24.3584 17.888 23.1022 18.3085 22.1126 18.5597L22.451 19.9236C23.4765 19.5903 24.5687 19.1904 25.7275 18.7699L25.7275 20.4107L27.1119 20.4107L27.1119 11.9657L25.7275 11.9657L25.7275 13.6681ZM33.6033 9.50967L33.6033 11.1864L29.168 11.1864L29.168 9.50967L33.6033 9.50967ZM35.0493 12.3862L35.0493 9.50967L40.91 9.50967L40.91 8.0996L35.0493 8.0996L35.0493 6.44342L33.6033 6.44342L33.6033 8.0996L29.168 8.0996L29.168 6.44342L27.7836 6.44342L27.7836 8.0996L22.1536 8.0996L22.1536 9.50967L27.7836 9.50967L27.7836 12.3862L35.0493 12.3862ZM29.9679 14.8833L32.9521 14.8833L32.9521 18.4777L29.9679 18.4777L29.9679 14.8833ZM34.316 19.6724L34.316 13.6886L28.645 13.6886L28.645 19.6724L34.316 19.6724ZM28.2656 21.5234C28.5168 22.7797 28.686 24.441 28.7066 25.4306L30.2192 25.1947C30.1987 24.2512 29.9884 22.6361 29.6962 21.3747L28.2656 21.5234ZM32.5317 21.5234C33.0752 22.7591 33.6238 24.441 33.8341 25.4511L35.3467 25.1127C35.1364 24.1026 34.5468 22.4669 33.9776 21.2465L32.5317 21.5234ZM39.2282 20.0928C40.3665 20.0928 40.7408 19.4827 40.869 17.2778C40.4896 17.1753 39.9204 16.9651 39.6281 16.7138C39.5666 18.5392 39.4794 18.811 39.0846 18.811L37.6746 18.811C37.2541 18.811 37.1926 18.7289 37.1926 18.2469L37.1926 16.1652C38.3668 15.6422 39.6692 14.9705 40.6793 14.2988L39.6487 13.1861C39.0641 13.7296 38.136 14.3398 37.1926 14.8423L37.1926 11.9657L35.762 11.9657L35.762 18.2674C35.762 19.6929 36.1004 20.0928 37.4848 20.0928L39.2282 20.0928ZM36.8131 21.3747C37.8643 22.6771 39.1051 24.523 39.6076 25.6613L41.1202 24.964C40.5511 23.8308 39.2743 22.0669 38.2437 20.7851L36.8131 21.3747Z" fill="#19191A" fill-opacity="1.000000" transform="matrix(1 0 0 1 118.676 274.737)"/><path d="M0 -0.361778L49.8123 -0.361778L49.8123 37L0 37L0 -0.361778Z" stroke-opacity="0" fill-opacity="1.000000" fill="#19DEA6" transform="matrix(1 0 0 1 133.029 390.067)"/><path d="M14.1505 14.1535L10.5871 14.1535L10.5871 10.59L14.1505 10.59L14.1505 14.1535ZM20.3471 15.8684L20.3471 20.5021C20.2498 20.5264 20.0978 20.5264 19.8545 20.5264L16.8627 20.5264C16.0174 20.5264 15.914 20.4291 15.914 19.7785L15.914 15.8684L20.3471 15.8684ZM4.70671 26.5527L4.70671 21.9251C5.05333 22.1987 5.58238 22.8433 5.77697 23.2203C9.51679 21.3717 10.435 18.4832 10.5627 15.8684L14.1505 15.8684L14.1505 19.7785C14.1505 21.773 14.6188 22.296 16.662 22.296L20.0248 22.296L20.3471 22.296L20.3471 26.5527L4.70671 26.5527ZM8.86613 15.8684C8.7445 18.015 8.02086 20.2528 4.70671 21.8947L4.70671 15.8684L8.86613 15.8684ZM23.2903 10.59L23.2903 8.79614L1.5689 8.79614L1.5689 10.59L8.89045 10.59L8.89045 14.1535L2.88848 14.1535L2.88848 29.8182L4.70671 29.8182L4.70671 28.2736L20.3471 28.2736L20.3471 29.7209L22.1957 29.7209L22.1957 14.1535L15.914 14.1535L15.914 10.59L23.2903 10.59ZM27.673 29.8669C29.0413 28.6446 30.1845 26.6561 30.8352 24.7649L29.0656 24.3149C28.4453 26.1331 27.2717 28.0486 26.0007 29.0946L27.673 29.8669ZM30.5129 15.7467L26.7487 15.7467L26.7487 17.3643L30.5129 17.3643L30.5129 20.2528C28.8892 20.7514 27.3994 21.2501 26.2257 21.548L26.6271 23.1656C27.8433 22.7703 29.1385 22.296 30.5129 21.7974L30.5129 23.7433L32.1547 23.7433L32.1547 13.7278L30.5129 13.7278L30.5129 15.7467ZM39.8533 10.815L39.8533 12.8035L34.5932 12.8035L34.5932 10.815L39.8533 10.815ZM41.5681 14.2265L41.5681 10.815L48.5188 10.815L48.5188 9.14276L41.5681 9.14276L41.5681 7.17859L39.8533 7.17859L39.8533 9.14276L34.5932 9.14276L34.5932 7.17859L32.9513 7.17859L32.9513 9.14276L26.2744 9.14276L26.2744 10.815L32.9513 10.815L32.9513 14.2265L41.5681 14.2265ZM35.5419 17.188L39.081 17.188L39.081 21.4507L35.5419 21.4507L35.5419 17.188ZM40.6986 22.8676L40.6986 15.7711L33.973 15.7711L33.973 22.8676L40.6986 22.8676ZM33.523 25.0629C33.8209 26.5527 34.0216 28.523 34.0459 29.6966L35.8398 29.4169C35.8155 28.298 35.5662 26.3824 35.2196 24.8865L33.523 25.0629ZM38.5824 25.0629C39.227 26.5284 39.8776 28.523 40.1269 29.7209L41.9208 29.3196C41.6715 28.1216 40.9722 26.1818 40.2972 24.7345L38.5824 25.0629ZM46.5242 23.3663C47.8742 23.3663 48.3181 22.6426 48.4701 20.0278C48.0201 19.9062 47.3451 19.6568 46.9985 19.3589C46.9255 21.5237 46.8222 21.846 46.3539 21.846L44.6816 21.846C44.183 21.846 44.11 21.7487 44.11 21.1771L44.11 18.7082C45.5026 18.0879 47.0471 17.2913 48.2451 16.4947L47.0228 15.1751C46.3296 15.8197 45.2289 16.5434 44.11 17.1393L44.11 13.7278L42.4134 13.7278L42.4134 21.2014C42.4134 22.8919 42.8148 23.3663 44.4566 23.3663L46.5242 23.3663ZM43.66 24.8865C44.9066 26.4311 46.3782 28.6203 46.9742 29.9702L48.7681 29.1432C48.0931 27.7993 46.5789 25.7075 45.3566 24.1872L43.66 24.8865Z" fill="#19191A" fill-opacity="1.000000" transform="matrix(1 0 0 1 133.029 390.067)"/><path d="M0 0L36 0L36 54L0 54L0 0Z" stroke-opacity="0" fill-opacity="1.000000" fill="#FFD635" transform="matrix(1 0 0 1 391.737 422.572)"/><path d="M19.3359 40.209L19.3359 32.9756L29.3027 32.9756L29.3027 30.4883L19.3359 30.4883L19.3359 24.8369L30.1289 24.8369L30.1289 22.9297L32.8359 22.9297L32.8359 15.3711L20.4873 15.3711C19.9072 14 18.9316 12.0928 18.1055 10.6514L15.5127 11.2666C16.1631 12.5234 16.9189 14.0703 17.4199 15.3711L3.12891 15.3711L3.12891 22.9297L5.75684 22.9297L5.75684 17.9199L30.0938 17.9199L30.0938 22.3496L5.90625 22.3496L5.90625 24.8369L16.4883 24.8369L16.4883 30.4883L6.80273 30.4883L6.80273 32.9756L16.4883 32.9756L16.4883 40.209L2.4873 40.209L2.4873 42.6963L33.5479 42.6963L33.5479 40.209L19.3359 40.209ZM22.0693 34.7686C24.0117 36.3945 26.499 38.5918 27.7559 39.9189L29.6982 38.3369C28.4062 37.0801 25.8486 34.9531 23.9414 33.4766L22.0693 34.7686Z" fill="#000000" fill-opacity="1.000000" transform="matrix(1 0 0 1 391.737 422.572)"/><path d="M0 0L36 0L36 54L0 54L0 0Z" stroke-opacity="0" fill-opacity="1.000000" fill="#FFD635" transform="matrix(1 0 0 1 396.737 527.737)"/><path d="M13.8252 22.5342C13.6406 25.5928 13.4648 26.8145 13.1045 27.21C12.8848 27.4648 12.5684 27.5 12.0938 27.5C11.5928 27.5 10.292 27.5 8.89453 27.3594C9.21973 27.9307 9.43066 28.792 9.50098 29.4424C11.0479 29.5127 12.4893 29.5479 13.2451 29.4775C14.1504 29.4072 14.7217 29.1963 15.1963 28.6514C15.873 27.9307 16.1631 26.0234 16.3828 21.3477C16.418 21.0225 16.4531 20.3721 16.4531 20.3721L7.59375 20.3721C7.62891 19.9414 7.62891 19.5459 7.62891 19.1504L7.62891 17.1641L18.8262 17.1641C19.582 20.2666 20.6982 23.1055 22.1045 25.373C20.3027 26.709 18.3252 27.8955 16.2686 28.792C16.8135 29.2666 17.71 30.2686 18.0703 30.7783C19.9072 29.8379 21.7793 28.6514 23.5107 27.3594C25.4531 29.7676 27.791 31.209 30.208 31.209C32.6162 31.209 33.5918 30.0225 34.0225 25.5928C33.3369 25.373 32.4316 24.9072 31.8604 24.4062C31.6758 27.5352 31.2803 28.6514 30.3486 28.6514C28.7314 28.6514 27.0352 27.5703 25.5234 25.6631C27.6855 23.6855 29.5928 21.418 31.0342 18.8604L28.6172 18.1045C27.4658 20.1523 25.9541 22.0244 24.1523 23.6855C23.1152 21.8486 22.1748 19.6162 21.4893 17.1641L33.4072 17.1641L33.4072 14.8262L27.8262 14.8262L29.127 13.9648C28.2568 13.0244 26.5693 11.6973 25.1279 10.792L23.291 11.9521C24.4775 12.6641 25.8838 13.8945 26.7803 14.8262L21.0234 14.8262C20.7686 13.5693 20.6279 12.2334 20.5576 10.9062L17.9297 10.9062C18 12.2334 18.1406 13.5693 18.3955 14.8262L5.00098 14.8262L5.00098 19.1152C5.00098 22.4639 4.57031 27.1396 1.69629 30.6289C2.33789 30.9189 3.4541 31.7803 3.88477 32.29C6.15234 29.5127 7.09277 25.8037 7.45312 22.5342L13.8252 22.5342ZM8.78027 34.127L13.2803 34.127L13.2803 40.5693L8.78027 40.5693L8.78027 34.127ZM20.2676 34.127L20.2676 40.5693L15.7324 40.5693L15.7324 34.127L20.2676 34.127ZM27.3252 34.127L27.3252 40.5693L22.7549 40.5693L22.7549 34.127L27.3252 34.127ZM29.9531 40.5693L29.9531 31.9297L6.2666 31.9297L6.2666 40.5693L1.83691 40.5693L1.83691 43.0127L34.0928 43.0127L34.0928 40.5693L29.9531 40.5693Z" fill="#000000" fill-opacity="1.000000" transform="matrix(1 0 0 1 396.737 527.737)"/><path d="M6.10352e-05 78.8352L6.00006 68.4432L-5.99994 68.4432L6.10352e-05 78.8352Z" transform="matrix(1 0 0 1 410.637 343.737)" fill="#000000" fill-opacity="1.000000" stroke="none"/><path d="M0 0L6.10352e-05 72.8352" fill="none" stroke="#000000" stroke-opacity="1.000000" stroke-width="2" stroke-linejoin="round" stroke-dasharray="0 0" transform="matrix(1 0 0 1 410.637 343.737)"/><path d="M1.00003 41L6.74485 30.4648L-5.25158 30.7574L1.00003 41Z" transform="matrix(1 0 0 1 414.637 486.737)" fill="#000000" fill-opacity="1.000000" stroke="none"/><path d="M0 0L0.853728 35.0018" fill="none" stroke="#000000" stroke-opacity="1.000000" stroke-width="2" stroke-linejoin="round" stroke-dasharray="0 0" transform="matrix(1 0 0 1 414.637 486.737)"/><path d="M0 0L36 0L36 54L0 54L0 0Z" stroke-opacity="0" fill-opacity="1.000000" fill="#FFD635" transform="matrix(1 0 0 1 472.737 419.737)"/><path d="M30.2432 14.8965L30.2432 20.9082L22.7197 20.9082L22.7197 14.8965L30.2432 14.8965ZM30.6738 33.0459C33.4072 33.0459 34.1631 31.8594 34.5234 27.8604C33.7676 27.6758 32.7568 27.2803 32.1855 26.8145C32.0361 30.0225 31.79 30.6289 30.4893 30.6289L24.6621 30.6289C23.001 30.6289 22.7197 30.3828 22.7197 29.1172L22.7197 23.3252L32.7217 23.3252L32.7217 12.4883L20.1973 12.4883L20.1973 29.082C20.1973 32.2549 21.208 33.0459 24.4072 33.0459L30.6738 33.0459ZM4.39453 43.8037C6.15234 41.791 7.52344 38.627 8.46387 36.1045L6.08203 35.1289C5.25586 37.5459 3.7793 40.5693 2.0127 42.4062L4.39453 43.8037ZM11.9531 35.999C12.7441 38.4424 13.3945 41.5361 13.4648 43.4521L16.0928 42.8721C16.0225 40.9648 15.3018 37.9062 14.4316 35.5244L11.9531 35.999ZM11.0127 14.791L11.0127 18.3594L7.59375 18.3594L7.59375 26.999L11.0127 26.999L11.0127 31.0684L5.72168 31.0684L5.72168 14.791L11.0127 14.791ZM14.7568 25.0479L9.61523 25.0479L9.61523 20.3018L14.7568 20.3018L14.7568 25.0479ZM13.4297 26.999L16.8486 26.999L16.8486 18.3594L13.4297 18.3594L13.4297 14.791L18.6152 14.791L18.6152 12.4531L3.24316 12.4531L3.24316 33.1514L3.81445 33.1514L3.81445 33.4062L19.0459 33.4062L19.0459 31.0684L13.4297 31.0684L13.4297 26.999ZM19.1162 36.1396C20.4873 38.4424 21.8145 41.501 22.2803 43.4082L24.8027 42.582C24.3369 40.6396 22.9307 37.6865 21.4541 35.4189L19.1162 36.1396ZM26.4639 36.0693C28.5117 38.4072 30.8145 41.6152 31.7549 43.7334L34.2334 42.4766C33.2666 40.3496 30.8848 37.2207 28.7666 34.918L26.4639 36.0693Z" fill="#000000" fill-opacity="1.000000" transform="matrix(1 0 0 1 472.737 419.737)"/><path d="M62 74L59.9252 62.181L50.7269 69.8876L62 74Z" transform="matrix(1 0 0 1 419.637 345.737)" fill="#000000" fill-opacity="1.000000" stroke="none"/><path d="M0 0L58.1467 69.4009" fill="none" stroke="#000000" stroke-opacity="1.000000" stroke-width="2" stroke-linejoin="round" stroke-dasharray="0 0" transform="matrix(1 0 0 1 419.637 345.737)"/><path d="M28.1 -101L19.5341 -92.5965L31.095 -89.38L28.1 -101Z" transform="matrix(1 0 0 1 444.637 547.737)" stroke="#FFD635" stroke-width="2.000000" stroke-opacity="1.000000" fill="none"/><path d="M0 0L25.3146 -90.9883" fill="none" stroke="#FFD635" stroke-opacity="1.000000" stroke-width="2" stroke-linejoin="round" stroke-dasharray="0 0" transform="matrix(1 0 0 1 444.637 547.737)"/><path d="M0 -0.317078L41.75 -0.317078L41.75 31L0 31L0 -0.317078Z" stroke-opacity="0" fill-opacity="1.000000" fill="#FFD635" transform="matrix(1 0 0 1 424.537 281.635)"/><path d="M16.7035 18.1943L16.7035 23.1029L8.07903 23.1029L8.07903 18.1943L16.7035 18.1943ZM6.53459 25.626L8.07903 25.626L8.07903 24.5403L16.7035 24.5403L16.7035 25.5852L18.3091 25.5852L18.3091 16.7365L6.53459 16.7365L6.53459 25.626ZM4.78116 12.2663L4.78116 9.69731C9.54192 9.38638 14.8226 8.8206 18.3957 7.94388L17.101 6.71546C13.9051 7.50552 8.11981 8.0917 3.19593 8.40263L3.19593 13.77C3.19593 16.9863 2.98695 21.431 0.749286 24.5862C1.12648 24.7748 1.75343 25.3151 2.02358 25.6515C4.40396 22.267 4.78116 17.236 4.78116 13.77L19.8535 13.77L19.8535 12.2663L4.78116 12.2663ZM23.1942 25.5648C24.3411 24.5403 25.2993 22.8735 25.8447 21.2883L24.3615 20.9111C23.8415 22.4352 22.8578 24.0408 21.7925 24.9175L23.1942 25.5648ZM25.5746 13.7292L22.4194 13.7292L22.4194 15.085L25.5746 15.085L25.5746 17.5062C24.2136 17.9242 22.9648 18.3421 21.9811 18.5919L22.3175 19.9477C23.3369 19.6164 24.4226 19.2188 25.5746 18.8009L25.5746 20.432L26.9508 20.432L26.9508 12.0369L25.5746 12.0369L25.5746 13.7292ZM33.4039 9.59537L33.4039 11.2621L28.9948 11.2621L28.9948 9.59537L33.4039 9.59537ZM34.8413 12.4549L34.8413 9.59537L40.6673 9.59537L40.6673 8.19364L34.8413 8.19364L34.8413 6.54725L33.4039 6.54725L33.4039 8.19364L28.9948 8.19364L28.9948 6.54725L27.6186 6.54725L27.6186 8.19364L22.0219 8.19364L22.0219 9.59537L27.6186 9.59537L27.6186 12.4549L34.8413 12.4549ZM29.79 14.9372L32.7565 14.9372L32.7565 18.5103L29.79 18.5103L29.79 14.9372ZM34.1124 19.698L34.1124 13.7496L28.4749 13.7496L28.4749 19.698L34.1124 19.698ZM28.0977 21.5381C28.3475 22.7869 28.5157 24.4384 28.536 25.4221L30.0397 25.1876C30.0193 24.2498 29.8103 22.6441 29.5198 21.3902L28.0977 21.5381ZM32.3385 21.5381C32.8788 22.7665 33.4242 24.4384 33.6332 25.4425L35.1369 25.1061C34.9279 24.1019 34.3417 22.4759 33.7759 21.2628L32.3385 21.5381ZM38.9955 20.1159C40.127 20.1159 40.4991 19.5094 40.6266 17.3176C40.2494 17.2157 39.6836 17.0067 39.393 16.7569C39.3319 18.5715 39.2452 18.8417 38.8527 18.8417L37.451 18.8417C37.033 18.8417 36.9719 18.7601 36.9719 18.281L36.9719 16.2115C38.1391 15.6916 39.4338 15.0239 40.438 14.3561L39.4134 13.25C38.8324 13.7903 37.9098 14.3969 36.9719 14.8964L36.9719 12.0369L35.5498 12.0369L35.5498 18.3014C35.5498 19.7184 35.8862 20.1159 37.2624 20.1159L38.9955 20.1159ZM36.5947 21.3902C37.6396 22.6849 38.8731 24.5199 39.3727 25.6515L40.8763 24.9583C40.3105 23.8318 39.0413 22.0784 38.0168 20.8041L36.5947 21.3902Z" fill="#000000" fill-opacity="1.000000" transform="matrix(1 0 0 1 424.537 281.635)"/><path d="M0 0L72 0L72 54L0 54L0 0Z" stroke-opacity="0" fill-opacity="1.000000" fill="#83C6FF" transform="matrix(1 0 0 1 711.286 282.597)"/><path d="M27.2197 36.7197L27.2197 34.4873L19.1865 34.4873L19.1865 30.8486L26.6045 30.8486L26.6045 28.6514L22.5352 28.6514C23.2207 27.3242 23.9414 25.7686 24.627 24.2568L22.21 23.7207C21.7441 25.127 20.918 27.1396 20.1621 28.6514L13.7197 28.6514L15.6621 28.0361C15.3369 26.8848 14.4316 25.127 13.5703 23.8613L11.4521 24.4062C12.2783 25.6631 13.1045 27.4648 13.4297 28.6514L9.65039 28.6514L9.65039 30.8486L16.6289 30.8486L16.6289 34.4873L8.89453 34.4873L8.89453 36.7197L16.6289 36.7197L16.6289 43.0479L19.1865 43.0479L19.1865 36.7197L27.2197 36.7197ZM33.7676 16.9883L33.7676 14.4658L19.4062 14.4658C19.5469 13.3496 19.6963 12.1982 19.8018 11.1523L16.9189 10.8359C16.8838 11.9082 16.7783 13.1738 16.6641 14.4658L2.30273 14.4658L2.30273 16.9883L16.418 16.9883C16.2686 18.3594 16.1279 19.6865 15.9521 20.8027L4.24512 20.8027L4.24512 43.7334L6.87305 43.7334L6.87305 23.29L29.1621 23.29L29.1621 40.6396C29.1621 41.2197 28.9775 41.3955 28.3359 41.4307C27.7207 41.4658 25.5234 41.4658 23.2559 41.3604C23.6162 42.0459 24.0469 43.0479 24.2314 43.7686C27.1055 43.7686 29.1621 43.7686 30.3135 43.3379C31.4648 42.9424 31.8604 42.2217 31.8604 40.6396L31.8604 20.8027L18.501 20.8027C18.6855 19.6514 18.8965 18.3242 19.0811 16.9883L33.7676 16.9883ZM39.999 43.6982C41.9766 41.9316 43.6289 39.0576 44.5694 36.3242L42.0117 35.6738C41.1152 38.3018 39.419 41.0703 37.582 42.582L39.999 43.6982ZM44.1035 23.29L38.6631 23.29L38.6631 25.6279L44.1035 25.6279L44.1035 29.8027C41.7569 30.5234 39.6035 31.2441 37.9072 31.6748L38.4873 34.0127C40.2451 33.4414 42.1172 32.7559 44.1035 32.0352L44.1035 34.8477L46.4766 34.8477L46.4766 20.3721L44.1035 20.3721L44.1035 23.29ZM57.6035 16.1621L57.6035 19.0361L50.001 19.0361L50.001 16.1621L57.6035 16.1621ZM60.082 21.0928L60.082 16.1621L70.1279 16.1621L70.1279 13.7451L60.082 13.7451L60.082 10.9062L57.6035 10.9062L57.6035 13.7451L50.001 13.7451L50.001 10.9062L47.6279 10.9062L47.6279 13.7451L37.9776 13.7451L37.9776 16.1621L47.6279 16.1621L47.6279 21.0928L60.082 21.0928ZM51.3721 25.373L56.4873 25.373L56.4873 31.5342L51.3721 31.5342L51.3721 25.373ZM58.8252 33.582L58.8252 23.3252L49.1045 23.3252L49.1045 33.582L58.8252 33.582ZM48.4541 36.7549C48.8848 38.9082 49.1748 41.7559 49.21 43.4521L51.8027 43.0479C51.7676 41.4307 51.4072 38.6621 50.9063 36.5L48.4541 36.7549ZM55.7666 36.7549C56.6983 38.873 57.6387 41.7559 57.999 43.4873L60.5918 42.9072C60.2315 41.1758 59.2207 38.3721 58.2451 36.2803L55.7666 36.7549ZM67.2451 34.3027C69.1963 34.3027 69.8379 33.2568 70.0576 29.4775C69.4072 29.3018 68.4317 28.9414 67.9307 28.5107C67.8252 31.6396 67.6758 32.1055 66.999 32.1055L64.582 32.1055C63.8613 32.1055 63.7559 31.9648 63.7559 31.1387L63.7559 27.5703C65.7686 26.6738 68.001 25.5225 69.7324 24.3711L67.9658 22.4639C66.9639 23.3955 65.3731 24.4414 63.7559 25.3027L63.7559 20.3721L61.3037 20.3721L61.3037 31.1738C61.3037 33.6172 61.8838 34.3027 64.2569 34.3027L67.2451 34.3027ZM63.1055 36.5C64.9072 38.7324 67.0342 41.8965 67.8955 43.8477L70.4883 42.6523C69.5127 40.71 67.3242 37.6865 65.5576 35.4893L63.1055 36.5Z" fill="#000000" fill-opacity="1.000000" transform="matrix(1 0 0 1 711.286 282.597)"/><path d="M2.12695 41.501C5.39648 40.6748 9.75586 39.6289 13.9307 38.5479L13.7197 36.3242C9.17578 37.3613 4.67578 38.4072 1.65234 38.9873L2.12695 41.501ZM4.89551 23C7.02246 19.8711 9.10547 15.8369 10.6523 11.9873L8.34961 10.9062C6.95215 15.2568 4.32422 19.9766 3.48926 21.1631C2.7334 22.3848 2.12695 23.3252 1.51172 23.4307C1.7666 24.0459 2.19727 25.3027 2.30273 25.8037C2.80371 25.5576 3.67383 25.3379 8.20898 24.7314C6.5918 27.1045 5.15039 28.9766 4.46484 29.7324C3.34863 31.0684 2.52246 31.9648 1.73145 32.1055C2.04785 32.7559 2.4082 33.8721 2.52246 34.373C3.27832 33.9424 4.46484 33.6172 13.4648 31.8594C13.4297 31.3145 13.4648 30.3037 13.5 29.6621L6.11719 30.9893C8.92969 27.7549 11.6982 23.7207 14.001 19.7217L11.9531 18.4648C11.2324 19.8359 10.4766 21.1982 9.65039 22.4639L4.89551 23ZM17.3496 21.2686L22.6055 21.2686C22.1396 25.6279 20.8477 30.3477 17.3496 34.4082L17.3496 21.2686ZM33.0117 18.8252L25.3477 18.8252C25.418 17.7441 25.418 16.6982 25.418 15.6963L25.418 10.9414L22.8604 10.9414L22.8604 15.6963C22.8604 16.6631 22.8604 17.7441 22.79 18.8252L14.8711 18.8252L14.8711 43.7334L17.3496 43.7334L17.3496 34.9883C18.0352 35.3486 18.791 35.9199 19.2217 36.3945C21.5244 33.7666 23.001 30.8838 23.9414 27.9307C25.6641 30.7783 27.3955 33.8018 28.2568 35.8145L30.4893 34.4873C29.373 32 26.8594 28.001 24.6973 24.8018C24.9082 23.6152 25.0928 22.4199 25.1982 21.2686L30.5244 21.2686L30.5244 40.3145C30.5244 40.8242 30.3486 41 29.7686 41.0352C29.2324 41.0703 27.29 41.0703 25.1631 41C25.5234 41.7207 25.9189 42.8369 26.0244 43.5576C28.8018 43.5576 30.5596 43.5225 31.6758 43.0918C32.6865 42.6172 33.0117 41.8613 33.0117 40.3145L33.0117 18.8252Z" fill="#000000" fill-opacity="1.000000" transform="matrix(1 0 0 1 570.187 281.635)"/><path d="M0 0L36 0L36 54L0 54L0 0Z" stroke-opacity="0" fill-opacity="1.000000" fill="#83C6FF" transform="matrix(1 0 0 1 577.737 419.469)"/><path d="M11.3379 31.8945L16.9189 31.8945L16.9189 29.5127L11.3379 29.5127L11.3379 24.4062L16.9893 24.4062C17.5342 24.8018 18.1406 25.3379 18.4307 25.6631C22.2803 23.3955 24.5127 20.0469 25.2334 14.6855L30.7441 14.6855C30.4893 19.3613 30.1641 21.1982 29.6982 21.7432C29.4873 22.0244 29.127 22.1035 28.6172 22.0684C28.0811 22.0684 26.6748 22.0684 25.1982 21.9189C25.5586 22.5693 25.8135 23.501 25.8838 24.2217C27.4658 24.292 28.9775 24.3359 29.8037 24.2217C30.709 24.1514 31.3594 23.9316 31.8955 23.3252C32.6865 22.4199 33.0117 19.9062 33.3369 13.499C33.3721 13.1387 33.3721 12.3828 33.3721 12.3828L17.6396 12.3828L17.6396 14.6855L22.6406 14.6855C22.1396 18.9307 20.4521 21.7432 17.2441 23.5801L17.2441 22.0244L10.9072 22.0244L10.9072 17.6035L16.5234 17.6035L16.5234 15.2217L10.9072 15.2217L10.9072 10.9062L8.41992 10.9062L8.41992 15.2217L2.69824 15.2217L2.69824 17.6035L8.41992 17.6035L8.41992 22.0244L2.0127 22.0244L2.0127 24.4062L8.92969 24.4062L8.92969 37.6162C7.55859 36.3594 6.5918 34.6279 5.83594 32.2549C5.94141 30.6289 6.01172 28.9062 6.04688 27.1396L3.60352 26.999C3.52441 33.292 3.16406 38.9082 1.11621 42.5117C1.73145 42.8018 2.80371 43.4873 3.24316 43.8037C4.32422 41.8613 4.93066 39.4883 5.36133 36.7549C7.98926 41.6504 12.2432 42.8369 19.9072 42.8369L33.6621 42.8369C33.8379 42.0459 34.3037 40.8242 34.7783 40.1738C32.5459 40.2793 21.6035 40.2793 19.8369 40.2441C16.2686 40.2441 13.5 39.9541 11.3379 39.0928L11.3379 31.8945ZM21.3486 28.4316L29.918 28.4316L29.918 35.0586L21.3486 35.0586L21.3486 28.4316ZM18.8262 37.291L32.5459 37.291L32.5459 26.208L18.8262 26.208L18.8262 37.291Z" fill="#000000" fill-opacity="1.000000" transform="matrix(1 0 0 1 577.737 419.469)"/><path d="M337.55 91L329.078 82.5018L325.954 94.0882L337.55 91Z" transform="matrix(1 0 0 1 232.637 195.737)" fill="#000000" fill-opacity="1.000000" stroke="none"/><path d="M0 0L331.757 89.4382" fill="none" stroke="#000000" stroke-opacity="1.000000" stroke-width="2" stroke-linejoin="round" stroke-dasharray="0 0" transform="matrix(1 0 0 1 232.637 195.737)"/><path d="M0 83.8459L6 73.4539L-6 73.4539L0 83.8459Z" transform="matrix(1 0 0 1 589.087 335.635)" fill="#000000" fill-opacity="1.000000" stroke="none"/><path d="M0 0L0 77.8459" fill="none" stroke="#000000" stroke-opacity="1.000000" stroke-width="2" stroke-linejoin="round" stroke-dasharray="0 0" transform="matrix(1 0 0 1 589.087 335.635)"/><path d="M-54.9999 84.8126L-44.3116 79.358L-54.3798 72.8288L-54.9999 84.8126Z" transform="matrix(1 0 0 1 651.637 334.656)" fill="#FFD635" fill-opacity="1.000000" stroke="none"/><path d="M0 0L-51.7354 79.7784" fill="none" stroke="#FFD635" stroke-opacity="1.000000" stroke-width="2" stroke-linejoin="round" stroke-dasharray="0 0" transform="matrix(1 0 0 1 651.637 334.656)"/><path d="M-116 68.5L-104.001 68.3823L-110.103 58.0494L-116 68.5Z" transform="matrix(1 0 0 1 141.637 75.7369)" fill="#000000" fill-opacity="1.000000" stroke="none"/><path d="M0 0L-110.834 65.4491" fill="none" stroke="#000000" stroke-opacity="1.000000" stroke-width="2" stroke-linejoin="round" stroke-dasharray="0 0" transform="matrix(1 0 0 1 141.637 75.7369)"/><path d="M10.7666 17.4189C9.65039 15.9424 7.2334 13.6748 5.32617 12.0576L3.60352 13.71C5.51074 15.4062 7.88379 17.7793 8.96484 19.3262L10.7666 17.4189ZM9.14062 37.4316L9.14062 22.1035L6.62695 22.1035L6.62695 22.1387L1.69629 22.1387L1.69629 24.6963L6.62695 24.6963L6.62695 37.9062C6.62695 39.4531 5.61621 40.3848 4.96582 40.7451C5.43164 41.3252 6.04688 42.4062 6.2666 43.0127C6.76758 42.3359 7.70801 41.6152 13.5703 37.0801C13.3242 36.5703 12.8496 35.5244 12.6387 34.8477L9.14062 37.4316ZM34.418 28.4316L24.3721 28.4316L24.3721 15.2568L32.8359 15.2568L32.8359 12.708L12.9199 12.708L12.9199 15.2568L21.709 15.2568L21.709 28.4316L11.918 28.4316L11.918 30.9893L21.709 30.9893L21.709 43.7334L24.3721 43.7334L24.3721 30.9893L34.418 30.9893L34.418 28.4316ZM14.1504 17.8496C15.1172 20.6621 15.9521 24.292 16.1631 26.709L18.5801 26.0586C18.3252 23.6504 17.4639 20.0469 16.418 17.2432L14.1504 17.8496ZM29.3379 26.8496C30.2783 24.582 31.3945 20.873 32.291 17.8496L29.6279 17.208C29.127 19.9062 28.1162 23.8613 27.2197 26.2783L29.3379 26.8496Z" fill="#19191A" fill-opacity="1.000000" transform="matrix(1 0 0 1 358.937 140.771)"/><path d="M189.1 80.0345L181.869 70.4585L177.191 81.5095L189.1 80.0345Z" transform="matrix(1 0 0 1 191.537 60.7369)" fill="#000000" fill-opacity="1.000000" stroke="none"/><path d="M0 0L183.575 77.6959" fill="none" stroke="#000000" stroke-opacity="1.000000" stroke-width="2" stroke-linejoin="round" stroke-dasharray="0 0" transform="matrix(1 0 0 1 191.537 60.7369)"/></svg>